<svg xmlns="http://www.w3.org/2000/svg" xmlns:xlink="http://www.w3.org/1999/xlink" viewBox="0 0 500 500"><defs><style>.cls-1{fill:none;}.cls-2{isolation:isolate;}.cls-3{fill:#e6f8ff;}.cls-4{fill:#32383a;}.cls-5{fill:#1b2426;}.cls-6{fill:#141819;}.cls-7{fill:#1a3a44;}.cls-8{fill:#315760;}.cls-9{fill:#44737f;}.cls-10{fill:#5b6c70;}.cls-11{fill:#1f2526;}.cls-12{fill:#1b2323;}.cls-13{fill:#293233;}.cls-14{fill:#3d4849;}.cls-15{fill:#a3c1c9;}.cls-16{fill:#45a2ba;opacity:0.63;}.cls-16,.cls-25,.cls-26,.cls-33,.cls-38,.cls-50,.cls-62,.cls-63,.cls-64,.cls-70{mix-blend-mode:screen;}.cls-17,.cls-25{fill:#121f59;}.cls-18{fill:#0c173d;}.cls-19{fill:#d6d6d6;}.cls-20{fill:#7c7c7c;}.cls-21{fill:#a0a0a0;}.cls-22{fill:#1d4149;}.cls-23{fill:#0d3038;}.cls-24{clip-path:url(#clip-path);}.cls-26{fill:#195e6e;}.cls-27{clip-path:url(#clip-path-2);}.cls-28{fill:#b2b2b2;}.cls-29{fill:#515151;}.cls-30{fill:#727272;}.cls-31{fill:#8c8c8c;}.cls-32{fill:#999;}.cls-33{opacity:0.35;fill:url(#Degradado_sin_nombre);}.cls-34{fill:#364c2a;}.cls-35{fill:#506642;}.cls-36{fill:#24331a;}.cls-37{fill:#d8d8d8;}.cls-38{fill:#8cc63f;opacity:0.5;}.cls-39,.cls-41,.cls-48,.cls-49{fill:#bfbfbf;}.cls-39{stroke:#8e8e8e;stroke-miterlimit:10;}.cls-40{fill:#282828;}.cls-42{fill:#3a3a3a;}.cls-43{fill:#5b5b5b;}.cls-44{fill:#a5a5a5;}.cls-45{fill:#35637c;}.cls-46{fill:#6dafcc;}.cls-47{clip-path:url(#clip-path-3);}.cls-48{opacity:0.18;}.cls-49{opacity:0.38;}.cls-50{fill:#00a99d;}.cls-51{fill:#29abe2;}.cls-52{fill:#ffea00;}.cls-53{fill:#fb1a4f;}.cls-54{fill:#160605;}.cls-55{fill:#f91b51;}.cls-56{fill:#fff7a1;}.cls-57{fill:#004153;}.cls-58{fill:#020101;}.cls-59{fill:#fdc200;}.cls-60{fill:#372c20;}.cls-61,.cls-62{fill:#50402a;}.cls-63{fill:#ff0;}.cls-63,.cls-64{opacity:0.44;}.cls-64{fill:url(#Degradado_sin_nombre_11);}.cls-65{fill:#0071bc;opacity:0.43;}.cls-66{fill:#c1272d;}.cls-67{fill:#333;}.cls-68{fill:#fcfcfc;}.cls-69{opacity:0.49;fill:url(#Degradado_sin_nombre_11-2);}.cls-70{fill:aqua;opacity:0.24;}</style><clipPath id="clip-path"><rect class="cls-1" x="55.12" y="47.76" width="149.56" height="90.69" rx="3"/></clipPath><clipPath id="clip-path-2"><rect class="cls-1" x="93.37" y="53.79" width="27.84" height="5.37" rx="1.69"/></clipPath><linearGradient id="Degradado_sin_nombre" x1="359.87" y1="74.62" x2="397.6" y2="74.62" gradientUnits="userSpaceOnUse"><stop offset="0" stop-color="#fff"/><stop offset="1"/></linearGradient><clipPath id="clip-path-3"><polyline class="cls-1" points="381.87 184.07 387.42 184.07 404.86 202.02 404.86 212.02 409.23 212.02 418.19 245.33 349.51 245.33 354.51 212.02 358.87 212.02 358.87 202.02 376.32 184.07 381.87 184.07"/></clipPath><linearGradient id="Degradado_sin_nombre_11" x1="410.72" y1="360.34" x2="416.91" y2="360.34" gradientUnits="userSpaceOnUse"><stop offset="0" stop-color="#7f47dd" stop-opacity="0.1"/><stop offset="0.99" stop-color="aqua"/></linearGradient><linearGradient id="Degradado_sin_nombre_11-2" x1="163.92" y1="392.23" x2="189.4" y2="392.23" xlink:href="#Degradado_sin_nombre_11"/></defs><g class="cls-2"><g id="Calque_2" data-name="Calque 2"><g id="background"><rect class="cls-3" width="500" height="500"/></g><g id="objects"><path class="cls-4" d="M137.15,178.2s23.6-7.7,45.67,0a45.2,45.2,0,0,0,26.8,24.17s5.22,9.9,5.9,40.71-3.71,40.06-3.71,40.06-6.57,5-26.29,4.46c-17.14-.45-76.05-.12-91.16,0a10.81,10.81,0,0,0-4.31.86c-1,.45-3.29,1-8.34,1.22-10.11.51-18.88,0-18.88,0S58.45,278,59,251s2.23-36.59,5.09-41.55,9.57-6.56,9.57-6.56l.67-8.24,24.27-3.06.84,6.34s19.72.34,27.64-8.56S137.15,178.2,137.15,178.2Z"/><circle class="cls-5" cx="159.66" cy="241.67" r="45.87"/><circle class="cls-6" cx="159.66" cy="238.42" r="45.87" transform="translate(-108.72 339.94) rotate(-76.91)"/><circle class="cls-7" cx="159.66" cy="238.42" r="34.62" transform="translate(-108.61 340.24) rotate(-76.97)"/><circle class="cls-8" cx="159.66" cy="238.42" r="22.99"/><circle class="cls-9" cx="159.66" cy="238.42" r="11.53"/><path class="cls-10" d="M74.46,202.26s-6.2,2-6.3,3.61,2.32,7.84,15.18,7,15.39-7,15.39-7A103.36,103.36,0,0,0,119,198.19a86.86,86.86,0,0,0,18.3-12.63s2.09-2.86,5-2.86c2.4,0,27.16.23,35.08.31a4.12,4.12,0,0,1,3.53,2C182,187,184,190,186,191.38c13.69,9.56,23.64,11,23.64,11a62,62,0,0,1-26.8-24.17s-19.6-8.2-47.24,0c0,0-13.9,19-34.84,19.68"/><path class="cls-11" d="M73.62,202.85s16.18,2.26,27.12-5l-2.18-6.33-24.27,3.06Z"/><path class="cls-12" d="M94.18,206.07V203.8l-.94,0c-1.19-1.64-3.92-3.56-10.18-3.36-5.69.17-8.5,2.08-9.73,4l-.83,0v3.2l.09.05a1.33,1.33,0,0,0,.35.65c1.18,1,7,4.53,15.34,2C94.41,208.55,94.18,206.07,94.18,206.07Z"/><path class="cls-13" d="M94.18,203.8s-.34-5.94-11.12-5.6-11.3,6.91-10.12,7.92,7,4.54,15.34,2C94.41,206.29,94.18,203.8,94.18,203.8Z"/><path class="cls-14" d="M90.56,202.39s-.22-4-7.41-3.73-7.52,4.6-6.74,5.28,4.69,3,10.22,1.34C90.72,204.05,90.56,202.39,90.56,202.39Z"/><path class="cls-5" d="M61.8,215.43s2,5,11.82,5.24,14.55,0,14.55,0v47.22a22,22,0,0,1-25,21.81l-.35-.05S53.4,263,61.8,215.43Z"/><path class="cls-5" d="M100.74,212.13h0v75.4h9.9V219.41A7.62,7.62,0,0,0,100.74,212.13Z"/><path class="cls-4" d="M92.16,234.16s-9.58,4.79-19.85,1.26S92.16,234.16,92.16,234.16Z"/><path class="cls-4" d="M92.16,247.09s-9.58,4.8-19.85,1.27S92.16,247.09,92.16,247.09Z"/><circle class="cls-15" cx="114.17" cy="208.25" r="3.53"/><path class="cls-5" d="M204.56,216.4l.21-2.32A9.46,9.46,0,0,0,197.5,204l-1.7-.39A51.53,51.53,0,0,1,204.56,216.4Z"/><path class="cls-16" d="M161.63,207.77a8.83,8.83,0,0,1,8.92,10.37c-.91,5.23-2.93,11.63-7.39,16.94s-14.92,8.33-23.15,9.82a8.84,8.84,0,0,1-10.27-10.62C132.36,223.26,139.93,208.58,161.63,207.77Z"/><rect class="cls-17" x="55.12" y="47.76" width="149.56" height="90.69" rx="3"/><circle class="cls-18" cx="152.14" cy="99.83" r="36.86" transform="translate(20.49 225.45) rotate(-76.93)"/><circle class="cls-19" cx="152.14" cy="94.69" r="36.86" transform="translate(25.49 221.47) rotate(-76.93)"/><circle class="cls-20" cx="152.14" cy="94.69" r="32.1" transform="translate(25.43 221.41) rotate(-76.9)"/><circle class="cls-21" cx="152.14" cy="94.69" r="21.49" transform="translate(25.3 221.28) rotate(-76.84)"/><circle class="cls-22" cx="152.14" cy="94.48" r="12.76"/><path class="cls-23" d="M157.49,94.48a5.35,5.35,0,1,1-5.35-5.34A5.36,5.36,0,0,1,157.49,94.48Z"/><path class="cls-20" d="M152.14,107.24a12.77,12.77,0,0,0,12.14-8.83H140A12.77,12.77,0,0,0,152.14,107.24Z"/><path class="cls-20" d="M152.14,81.72A12.77,12.77,0,0,0,140,90.56h24.28A12.76,12.76,0,0,0,152.14,81.72Z"/><g class="cls-24"><rect class="cls-25" x="49.81" y="43.71" width="158.04" height="8.55"/></g><path class="cls-20" d="M73.24,46.7h17a.63.63,0,0,1,.63.63v2.82a0,0,0,0,1,0,0H72.62a0,0,0,0,1,0,0V47.32A.63.63,0,0,1,73.24,46.7Z"/><path class="cls-21" d="M75.72,43.71H87.81a1.51,1.51,0,0,1,1.51,1.51V46.7a0,0,0,0,1,0,0H74.21a0,0,0,0,1,0,0V45.23A1.51,1.51,0,0,1,75.72,43.71Z"/><rect class="cls-19" x="93.37" y="53.79" width="27.84" height="5.37" rx="1.69"/><path class="cls-26" d="M175.11,56.38a2.59,2.59,0,1,1-2.59-2.59A2.59,2.59,0,0,1,175.11,56.38Z"/><circle class="cls-26" cx="146.8" cy="94.48" r="1.86"/><polyline class="cls-25" points="73.45 52.27 73.45 137.13 67.49 137.13 67.49 52.27"/><path class="cls-26" d="M161.89,86.26l17.35-16.55s6.23,5.15,8.78,16.55l-23.74,4.3"/><g class="cls-27"><rect class="cls-20" x="90.92" y="56.65" width="35.25" height="4.16"/></g><rect class="cls-19" x="76.76" y="44.16" width="10.48" height="1.04" rx="0.39"/><rect class="cls-28" x="287.59" y="47.71" width="163.43" height="90.99" rx="3.81"/><ellipse class="cls-29" cx="392.49" cy="93.2" rx="42.7" ry="42.15"/><ellipse class="cls-30" cx="392.49" cy="93.2" rx="34.36" ry="33.92"/><ellipse class="cls-31" cx="392.49" cy="93.2" rx="29.77" ry="29.38"/><ellipse class="cls-30" cx="392.49" cy="93.2" rx="26.67" ry="26.32"/><ellipse class="cls-32" cx="392.49" cy="93.2" rx="18.39" ry="18.16"/><path class="cls-33" d="M359.87,66l32.62,32.11,5.11-46.77S373.2,47.91,359.87,66Z"/><rect class="cls-34" x="377.8" y="81.92" width="29.38" height="22.32" rx="2.56"/><circle class="cls-35" cx="392.49" cy="93.03" r="10.26"/><circle class="cls-36" cx="392.49" cy="93.03" r="5.11"/><rect class="cls-37" x="315.92" y="53.08" width="33.82" height="7.38" rx="2.69"/><path class="cls-37" d="M312.13,43.46h26.81a2.22,2.22,0,0,1,2.22,2.22v2a0,0,0,0,1,0,0H309.91a0,0,0,0,1,0,0v-2A2.22,2.22,0,0,1,312.13,43.46Z"/><rect class="cls-32" x="296.64" y="47.71" width="11.03" height="90.99"/><rect class="cls-19" x="304.05" y="47.54" width="4.48" height="90.99"/><rect class="cls-32" x="438.55" y="47.71" width="4.31" height="90.99"/><path class="cls-19" d="M359.87,56.77a3.69,3.69,0,1,1-3.69-3.69A3.69,3.69,0,0,1,359.87,56.77Z"/><path class="cls-38" d="M392.49,89.07a4.14,4.14,0,1,1-4.13-4.14A4.13,4.13,0,0,1,392.49,89.07Z"/><ellipse class="cls-39" cx="373.18" cy="183.28" rx="2.51" ry="2.59"/><ellipse class="cls-39" cx="389.7" cy="183.28" rx="2.51" ry="2.59"/><path class="cls-40" d="M445.94,207H292.68a4.65,4.65,0,0,0-4.59,4.72v73.13a4.65,4.65,0,0,0,4.59,4.72h62.81a39,39,0,0,0,56.72,0h33.73a4.65,4.65,0,0,0,4.59-4.72V211.74A4.65,4.65,0,0,0,445.94,207Z"/><path class="cls-32" d="M446.82,207h-155a3.77,3.77,0,0,0-3.71,3.82v14.63h76a38.75,38.75,0,0,1,39.6,0h46.88V210.84A3.77,3.77,0,0,0,446.82,207Z"/><polyline class="cls-32" points="381.66 180.92 387.79 180.92 407.02 200.72 407.02 211.74 411.83 211.74 421.72 248.48 345.98 248.48 351.49 211.74 356.3 211.74 356.3 200.72 375.54 180.92 381.66 180.92"/><polyline class="cls-41" points="381.87 184.07 387.42 184.07 404.86 202.02 404.86 212.02 409.23 212.02 418.19 245.33 349.51 245.33 354.51 212.02 358.87 212.02 358.87 202.02 376.32 184.07 381.87 184.07"/><ellipse class="cls-42" cx="383.85" cy="260.94" rx="39.75" ry="40.91"/><ellipse class="cls-43" cx="383.85" cy="260.94" rx="31.33" ry="32.25"/><ellipse class="cls-44" cx="383.85" cy="260.94" rx="26.31" ry="27.07"/><ellipse class="cls-45" cx="383.85" cy="260.94" rx="17.89" ry="18.41"/><path class="cls-46" d="M401.74,260.94c-.07,1.32-5.87,8.18-19,8.18-9.88,0-16.8-8.18-16.8-8.18a18.15,18.15,0,0,1,17.89-18.41C393.73,242.53,402.23,250.78,401.74,260.94Z"/><rect class="cls-40" x="325.69" y="200.16" width="26.82" height="6.86"/><path class="cls-40" d="M300.86,200.16h15.77a3.81,3.81,0,0,1,3.81,3.81v3a0,0,0,0,1,0,0H297.05a0,0,0,0,1,0,0v-3A3.81,3.81,0,0,1,300.86,200.16Z"/><path class="cls-42" d="M328.36,194.42h21.49a2.67,2.67,0,0,1,2.67,2.67v3.63a0,0,0,0,1,0,0H325.69a0,0,0,0,1,0,0v-3.63A2.67,2.67,0,0,1,328.36,194.42Z"/><path class="cls-42" d="M421.28,196h17.18a2.89,2.89,0,0,1,2.89,2.89v3.41a0,0,0,0,1,0,0h-23a0,0,0,0,1,0,0v-3.41A2.89,2.89,0,0,1,421.28,196Z"/><path class="cls-43" d="M415,202.29h29.92a1,1,0,0,1,1,1V207a0,0,0,0,1,0,0H414a0,0,0,0,1,0,0v-3.72A1,1,0,0,1,415,202.29Z"/><rect class="cls-32" x="349.51" y="212.02" width="63.75" height="4.22"/><rect class="cls-32" x="349.51" y="208.82" width="63.75" height="2.08"/><path class="cls-41" d="M441.68,220a3.94,3.94,0,1,1-3.94-4.05A4,4,0,0,1,441.68,220Z"/><g class="cls-47"><rect class="cls-43" x="358.85" y="190.37" width="51.3" height="11.92"/><rect class="cls-43" x="358.85" y="184.07" width="51.3" height="4.27"/></g><rect class="cls-48" x="294.79" y="207.02" width="19.24" height="82.57"/><rect class="cls-49" x="316.44" y="207.02" width="4.52" height="82.57" transform="translate(637.39 496.61) rotate(180)"/><path class="cls-50" d="M389.7,245.33s-7.45-1-7.45,3,8.52,11.58,12,8.43S396.9,248.06,389.7,245.33Z"/><path class="cls-51" d="M444.9,382.69,442,378.93v-1.3H296.61v1.78l-2.55,3.28a6.19,6.19,0,0,0-1.31,3.81v46.34a6.14,6.14,0,0,0,1.31,3.8l2.55,3.29v4.58a12.3,12.3,0,0,0,12.3,12.3H429.68A12.3,12.3,0,0,0,442,444.51v-4.1l2.93-3.77a6.14,6.14,0,0,0,1.31-3.8V386.5A6.19,6.19,0,0,0,444.9,382.69Z"/><path class="cls-52" d="M296.61,377.63H442v-20a6.19,6.19,0,0,0-6.2-6.19H394v-7a4.4,4.4,0,0,0-4.4-4.4H349.2a4.4,4.4,0,0,0-4.4,4.4v6.2H326.7a3.89,3.89,0,0,0-3.89,3.89V360H300.25a4,4,0,0,0-3.95,4Z"/><path class="cls-53" d="M302.06,352.64h17.49a3.25,3.25,0,0,1,3.25,3.25V360a0,0,0,0,1,0,0h-24a0,0,0,0,1,0,0v-4.15A3.25,3.25,0,0,1,302.06,352.64Z"/><path class="cls-53" d="M358.65,331.44h21.09a3.25,3.25,0,0,1,3.25,3.25V340a0,0,0,0,1,0,0H355.4a0,0,0,0,1,0,0v-5.35A3.25,3.25,0,0,1,358.65,331.44Z"/><path class="cls-52" d="M396.16,377.43H342a6.44,6.44,0,0,0-6.43,6.65l1.81,60.4a6.63,6.63,0,0,0,6.61,6.44h18v5.82h14.2v-5.82h18a6.64,6.64,0,0,0,6.61-6.44l1.8-60.4A6.44,6.44,0,0,0,396.16,377.43Z"/><rect class="cls-54" x="292.41" y="389.23" width="3.6" height="44.39"/><rect class="cls-54" x="442.57" y="389.23" width="3.6" height="44.39"/><path class="cls-55" d="M325.4,399.42H336l.4,13.4s-3-6.4-7-6S325.4,399.42,325.4,399.42Z"/><rect class="cls-56" x="308.41" y="363.43" width="32.39" height="11.4" rx="2.12"/><path class="cls-54" d="M351.87,344.44h34.84a1.88,1.88,0,0,1,1.88,1.88v22.44a1.88,1.88,0,0,1-1.87,1.88H351.87a1.87,1.87,0,0,1-1.87-1.87V346.31A1.87,1.87,0,0,1,351.87,344.44Z"/><rect class="cls-57" x="399.18" y="353.43" width="22.19" height="20.59" rx="1.94"/><rect class="cls-58" x="402.2" y="356.23" width="16.16" height="15" rx="2.24"/><circle class="cls-59" cx="368.89" cy="419.72" r="29.29" transform="translate(-123.58 683.75) rotate(-76.89)"/><circle class="cls-53" cx="368.89" cy="419.72" r="26.69" transform="translate(-123.65 683.63) rotate(-76.87)"/><circle class="cls-52" cx="368.89" cy="419.72" r="17.7" transform="translate(-126.5 678.24) rotate(-76.25)"/><circle class="cls-60" cx="368.89" cy="419.72" r="11.3"/><circle class="cls-54" cx="368.89" cy="419.72" r="8.3" transform="translate(-124.13 682.72) rotate(-76.77)"/><rect class="cls-61" x="352.94" y="346.24" width="32.7" height="22.99"/><path class="cls-62" d="M374.06,416.75a3.2,3.2,0,1,1-3.2-3.2A3.2,3.2,0,0,1,374.06,416.75Z"/><path class="cls-62" d="M410.85,364.5a3.2,3.2,0,1,1-3.2-3.2A3.2,3.2,0,0,1,410.85,364.5Z"/><path class="cls-63" d="M374,421.25a1.2,1.2,0,1,1-1.2-1.2A1.2,1.2,0,0,1,374,421.25Z"/><path class="cls-64" d="M410.78,357.73l6.13,5.27v-2.92a2.33,2.33,0,0,0-2.14-2.32A30,30,0,0,0,410.78,357.73Z"/><rect class="cls-62" x="353.4" y="347.24" width="31.79" height="2" rx="0.62"/><rect class="cls-62" x="353.4" y="350.44" width="31.79" height="2" rx="0.62"/><rect class="cls-62" x="353.4" y="353.63" width="31.79" height="2" rx="0.62"/><rect class="cls-62" x="353.4" y="356.83" width="31.79" height="2" rx="0.62"/><rect class="cls-62" x="353.4" y="360.03" width="31.79" height="2" rx="0.62"/><rect class="cls-62" x="353.4" y="363.23" width="31.79" height="2" rx="0.62"/><rect class="cls-62" x="353.4" y="366.43" width="31.79" height="2" rx="0.62"/><rect class="cls-65" x="307.41" y="377.3" width="13.86" height="79.18"/><rect class="cls-65" x="416.98" y="377.3" width="13.86" height="79.18"/><polygon class="cls-59" points="344.82 350.64 345 373.56 340.73 377.56 344.82 350.64"/><polygon class="cls-59" points="393.99 351.44 394.05 373.3 398.05 377.83 393.99 351.44"/><polygon class="cls-56" points="392.79 375.43 369.19 375.63 345.6 375.43 339 380.03 369.19 380.03 399.38 380.03 392.79 375.43"/><path class="cls-28" d="M87.2,356.32H210.11a23.79,23.79,0,0,1,23.79,23.79v68.44a12.75,12.75,0,0,1-12.75,12.75h-134A23.79,23.79,0,0,1,63.4,437.51v-57.4A23.79,23.79,0,0,1,87.2,356.32Z"/><circle class="cls-32" cx="94.44" cy="419.47" r="9.38" transform="translate(-335.51 416.12) rotate(-76.87)"/><circle class="cls-66" cx="94.44" cy="419.47" r="7.75" transform="translate(-334.7 446.05) rotate(-80.86)"/><rect x="79.8" y="393.41" width="28.76" height="11.8" rx="2.66"/><path class="cls-32" d="M215.3,419.53q0-17.23.08-34.47c0-9.36,0-18.75.16-28.11a23.73,23.73,0,0,0-5.43-.63h-2.24Q208,373,208,389.78q.07,33.83.06,67.65v3.87h7.14Q215.25,440.42,215.3,419.53Z"/><path class="cls-67" d="M63.4,379.91h0a1,1,0,0,0,1.05,1h39.46c9.47,0,6.76-7.85,18.92-7.85H231.74a1.05,1.05,0,0,0,1-1.4,22.54,22.54,0,0,0-21.37-15.38H87A23.59,23.59,0,0,0,63.4,379.91Z"/><path class="cls-67" d="M182,333h-25.4c-8.1,0-15,4.52-16.5,10.73l-5.17,22.08c0,.08.06.16.17.16H203.5c.1,0,.18-.08.16-.16l-5.17-22.08C197,337.53,190.09,333,182,333Z"/><path d="M186.8,343.86v-1.41a5.94,5.94,0,0,0-5.94-5.94h-23.4a5.94,5.94,0,0,0-5.94,5.94v1.41Z"/><polygon points="174.95 327.34 174.95 329.4 176.9 329.4 176.9 330.91 161.41 330.91 161.41 329.4 163.45 329.4 163.45 327.34 158.61 327.34 158.61 333 179.25 333 179.25 327.34 174.95 327.34"/><rect x="86.43" y="346.58" width="34.31" height="9.95" rx="2.17"/><rect class="cls-68" x="87.44" y="362.99" width="13.44" height="12.04" rx="2.89"/><path class="cls-67" d="M97,369a2.86,2.86,0,1,0-2.85,2.86A2.85,2.85,0,0,0,97,369Z"/><circle class="cls-68" cx="170.68" cy="399.42" r="49.84"/><circle class="cls-67" cx="170.68" cy="399.42" r="43.02"/><circle cx="170.68" cy="399.42" r="25.5"/><circle class="cls-69" cx="176.66" cy="392.23" r="12.74"/><path class="cls-70" d="M187.09,387a4.87,4.87,0,1,1-4.87-4.87A4.87,4.87,0,0,1,187.09,387Z"/></g></g></g></svg>